<svg xmlns="http://www.w3.org/2000/svg" width="20" height="20" viewBox="0 0 20 20">
  <g id="Group_203" data-name="Group 203" transform="translate(-11921 636)">
    <g id="Group_202" data-name="Group 202" transform="translate(11919 -638)">
      <path id="Path_113" data-name="Path 113" d="M8,2h8a6.007,6.007,0,0,1,6,6v8a6.007,6.007,0,0,1-6,6H8a6.007,6.007,0,0,1-6-6V8A6.007,6.007,0,0,1,8,2Zm8,18a4,4,0,0,0,4-4V8a4,4,0,0,0-4-4H8A4,4,0,0,0,4,8v8a4,4,0,0,0,4,4Z" fill="#fff"/>
      <path id="Path_114" data-name="Path 114" d="M12,17a5,5,0,1,1,5-5A5.006,5.006,0,0,1,12,17Zm0-8a3,3,0,1,0,3,3A3,3,0,0,0,12,9Z" fill="#fff"/>
    </g>
    <circle id="Ellipse_29" data-name="Ellipse 29" cx="1.5" cy="1.5" r="1.5" transform="translate(11934.5 -632.5)" fill="rgba(0,0,0,0)"/>
    <path id="Ellipse_29_-_Outline" data-name="Ellipse 29 - Outline" d="M1.5-.5a2,2,0,1,1-2,2A2,2,0,0,1,1.5-.5Zm0,3a1,1,0,1,0-1-1A1,1,0,0,0,1.5,2.5Z" transform="translate(11934.5 -632.5)" fill="#fff"/>
  </g>
</svg>
