<svg width="12" height="12" viewBox="0 0 12 12" fill="none" xmlns="http://www.w3.org/2000/svg">
<path d="M6 1.5H4C2.61929 1.5 1.5 2.61929 1.5 4V8C1.5 9.3807 2.61929 10.5 4 10.5H8C9.3807 10.5 10.5 9.3807 10.5 8V4C10.5 2.61929 9.3807 1.5 8 1.5H6Z" stroke="white" stroke-linecap="round" stroke-linejoin="round" stroke-dasharray="33 33"/>
<path d="M6 4C7.10457 4 8 4.89543 8 6C8 7.10457 7.10457 8 6 8C4.89543 8 4 7.10455 4 6C4 4.89543 4.89543 4 6 4Z" stroke="white" stroke-linecap="round" stroke-linejoin="round" stroke-dasharray="13 13"/>
<path d="M8.5 4.25C8.91421 4.25 9.25 3.91421 9.25 3.5C9.25 3.08579 8.91421 2.75 8.5 2.75C8.08579 2.75 7.75 3.08579 7.75 3.5C7.75 3.91421 8.08579 4.25 8.5 4.25Z" fill="white"/>
</svg>
