<svg xmlns="http://www.w3.org/2000/svg" width="19.795" height="30" viewBox="0 0 19.795 30">
  <g id="location" transform="translate(-6.103 -1)">
    <path id="Ellipse_28" data-name="Ellipse 28" d="M4-1A5,5,0,1,1-1,4,5.006,5.006,0,0,1,4-1ZM4,7A3,3,0,1,0,1,4,3,3,0,0,0,4,7Z" transform="translate(12 7)" fill="#fff"/>
    <path id="Path_112" data-name="Path 112" d="M16,1a9.948,9.948,0,0,1,8.293,4.448,9.762,9.762,0,0,1,1.57,4.566,11.242,11.242,0,0,1-.944,5.38A134.463,134.463,0,0,1,16.848,30.53a1,1,0,0,1-1.7,0A134.463,134.463,0,0,1,7.081,15.394a11.242,11.242,0,0,1-.944-5.38,9.762,9.762,0,0,1,1.57-4.566A9.948,9.948,0,0,1,16,1Zm0,27.075a124.866,124.866,0,0,0,7.081-13.469,8.3,8.3,0,0,0-.457-8.057,7.955,7.955,0,0,0-13.247,0,8.3,8.3,0,0,0-.458,8.057A124.867,124.867,0,0,0,16,28.075Z" fill="#fff"/>
  </g>
</svg>
