<svg xmlns="http://www.w3.org/2000/svg" width="199.999" height="199.999" viewBox="0 0 199.999 199.999">
  <path id="phone" d="M222.37,158.46l-47.11-21.11-.13-.06a16,16,0,0,0-15.17,1.4,8.121,8.121,0,0,0-.75.56L134.87,160c-15.42-7.49-31.34-23.29-38.83-38.51l20.78-24.71c.2-.25.39-.5.57-.77a16,16,0,0,0,1.32-15.06v-.12L97.54,33.64a16,16,0,0,0-16.62-9.52A56.26,56.26,0,0,0,32,80c0,79.4,64.6,144,144,144a56.26,56.26,0,0,0,55.88-48.92,16,16,0,0,0-9.51-16.62ZM176,208A128.14,128.14,0,0,1,48,80,40.2,40.2,0,0,1,82.87,40a.61.61,0,0,0,0,.12l21,47L83.2,111.86a6.129,6.129,0,0,0-.57.77,16,16,0,0,0-1,15.7c9.06,18.53,27.73,37.06,46.46,46.11a16,16,0,0,0,15.75-1.14,8.437,8.437,0,0,0,.74-.56L168.89,152l47,21.05H216A40.21,40.21,0,0,1,176,208Z" transform="translate(-32 -24.001)" fill="#fff"/>
</svg>
